<svg xmlns="http://www.w3.org/2000/svg" width="1440" height="960" viewBox="0 0 1440 960" role="img" aria-labelledby="title desc">
<title id="title">WakilKita Pandan constituency dashboard illustration</title>
<desc id="desc">A trust-safe product UI illustration showing P100 Pandan public data cards, issue priorities and source-needed labels. It is illustrative, not live civic data.</desc>
<defs>
  <linearGradient id="bg" x1="0" y1="0" x2="1" y2="1"><stop offset="0" stop-color="#f7f0e4"/><stop offset="1" stop-color="#ecf6ed"/></linearGradient>
  <filter id="shadow" x="-20%" y="-20%" width="140%" height="140%"><feDropShadow dx="0" dy="28" stdDeviation="30" flood-color="#071613" flood-opacity="0.18"/></filter>
</defs>
<rect width="1440" height="960" fill="url(#bg)"/>
<circle cx="1320" cy="104" r="260" fill="#ddf7e8" opacity="0.72"/>
<circle cx="92" cy="820" r="240" fill="#efd994" opacity="0.35"/>
<g filter="url(#shadow)">
  <rect x="140" y="110" width="1160" height="740" rx="56" fill="#fffaf1" stroke="#d8ccbb" stroke-width="3"/>
  <rect x="184" y="154" width="1072" height="108" rx="34" fill="#071613"/>
  <circle cx="230" cy="208" r="24" fill="#ddf7e8"/>
  <text x="270" y="199" fill="white" font-family="Arial, sans-serif" font-size="34" font-weight="900">WakilKita</text>
  <text x="270" y="232" fill="#ddf7e8" font-family="Arial, sans-serif" font-size="18" font-weight="700" letter-spacing="3">P100 PANDAN PILOT</text>
  <rect x="1000" y="186" width="206" height="44" rx="22" fill="#0f6b4d"/>
  <text x="1035" y="214" fill="white" font-family="Arial, sans-serif" font-size="16" font-weight="900">INTAKE OPEN</text>

  <g transform="translate(184 304)">
    <rect width="254" height="150" rx="28" fill="#ffffff" stroke="#d8ccbb" stroke-width="2"/>
    <text x="26" y="44" fill="#d99a1e" font-family="Arial, sans-serif" font-size="16" font-weight="900" letter-spacing="2">POPULATION</text>
    <text x="26" y="98" fill="#071613" font-family="Arial, sans-serif" font-size="48" font-weight="900">228.8k</text>
    <text x="26" y="126" fill="#33413d" font-family="Arial, sans-serif" font-size="16" font-weight="700">DOSM baseline</text>
  </g>
  <g transform="translate(466 304)">
    <rect width="254" height="150" rx="28" fill="#ffffff" stroke="#d8ccbb" stroke-width="2"/>
    <text x="26" y="44" fill="#d99a1e" font-family="Arial, sans-serif" font-size="16" font-weight="900" letter-spacing="2">ELECTORS</text>
    <text x="26" y="98" fill="#071613" font-family="Arial, sans-serif" font-size="48" font-weight="900">148.7k</text>
    <text x="26" y="126" fill="#33413d" font-family="Arial, sans-serif" font-size="16" font-weight="700">public baseline</text>
  </g>
  <g transform="translate(748 304)">
    <rect width="254" height="150" rx="28" fill="#ffffff" stroke="#d8ccbb" stroke-width="2"/>
    <text x="26" y="44" fill="#d99a1e" font-family="Arial, sans-serif" font-size="16" font-weight="900" letter-spacing="2">AGE/RACE</text>
    <text x="26" y="98" fill="#071613" font-family="Arial, sans-serif" font-size="38" font-weight="900">Source</text>
    <text x="26" y="126" fill="#33413d" font-family="Arial, sans-serif" font-size="16" font-weight="700">needed before publish</text>
  </g>
  <g transform="translate(184 500)">
    <rect width="520" height="274" rx="34" fill="#071613"/>
    <text x="32" y="54" fill="#ddf7e8" font-family="Arial, sans-serif" font-size="18" font-weight="900" letter-spacing="2">ISSUE PRIORITY WORKBENCH</text>
    <g transform="translate(32 92)">
      <text x="0" y="0" fill="white" font-family="Arial, sans-serif" font-size="22" font-weight="900">Dense urban service load</text><rect x="0" y="22" width="410" height="18" rx="9" fill="#ffffff22"/><rect x="0" y="22" width="356" height="18" rx="9" fill="#ddf7e8"/>
      <text x="0" y="82" fill="white" font-family="Arial, sans-serif" font-size="22" font-weight="900">Mobility and walkability</text><rect x="0" y="104" width="410" height="18" rx="9" fill="#ffffff22"/><rect x="0" y="104" width="330" height="18" rx="9" fill="#ddf7e8"/>
      <text x="0" y="164" fill="white" font-family="Arial, sans-serif" font-size="22" font-weight="900">Maintenance response</text><rect x="0" y="186" width="410" height="18" rx="9" fill="#ffffff22"/><rect x="0" y="186" width="318" height="18" rx="9" fill="#ddf7e8"/>
    </g>
  </g>
  <g transform="translate(742 500)">
    <rect width="514" height="274" rx="34" fill="#ffffff" stroke="#d8ccbb" stroke-width="2"/>
    <text x="30" y="54" fill="#0f6b4d" font-family="Arial, sans-serif" font-size="18" font-weight="900" letter-spacing="2">TRUST NOTES</text>
    <g font-family="Arial, sans-serif" font-size="24" font-weight="900" fill="#071613">
      <text x="30" y="106">Non-binding support signal</text>
      <text x="30" y="158">No IC/eKYC through site</text>
      <text x="30" y="210">Aggregate-only public output</text>
    </g>
    <g fill="#0f6b4d"><circle cx="470" cy="98" r="12"/><circle cx="470" cy="150" r="12"/><circle cx="470" cy="202" r="12"/></g>
  </g>
</g>
<text x="140" y="910" fill="#33413d" font-family="Arial, sans-serif" font-size="22" font-weight="700">Illustrative product visual only — not official election infrastructure, not live participation data.</text>
</svg>